<svg width="354" height="60" viewBox="0 0 354 60" fill="none" xmlns="http://www.w3.org/2000/svg">
<path fill-rule="evenodd" clip-rule="evenodd" d="M306.065 59.0529H295.441V54.0566H295.285C294.827 54.7315 294.222 55.424 293.478 56.1253C292.735 56.8265 291.862 57.4664 290.859 58.0361C289.856 58.6059 288.75 59.0792 287.548 59.4386C286.338 59.8067 285.093 59.9821 283.814 59.9821C281.039 59.9821 278.523 59.5 276.267 58.5358C274.011 57.5716 272.066 56.2217 270.449 54.4773C268.832 52.733 267.588 50.6644 266.715 48.2714C265.841 45.8784 265.409 43.2488 265.409 40.3825C265.409 37.7265 265.807 35.1933 266.602 32.7653C267.397 30.346 268.53 28.1985 269.991 26.3227C271.452 24.4469 273.233 22.9567 275.342 21.8348C277.443 20.7128 279.837 20.1518 282.508 20.1518C284.92 20.1518 287.168 20.5287 289.243 21.2826C291.326 22.0364 293.029 23.3249 294.36 25.1481H294.516V0H306.065V59.0529ZM295.441 40.0757C295.441 37.2094 294.637 34.8953 293.012 33.1247C291.395 31.3541 289.122 30.4687 286.2 30.4687C283.278 30.4687 281.004 31.3541 279.388 33.1247C277.771 34.8953 276.958 37.2094 276.958 40.0757C276.958 42.942 277.762 45.2561 279.388 47.0267C281.004 48.7973 283.278 49.6826 286.2 49.6826C289.122 49.6826 291.395 48.7973 293.012 47.0267C294.628 45.2561 295.441 42.942 295.441 40.0757Z" fill="white"/>
<path d="M131.874 32.2661L131.863 32.2517L138.937 25.1573C137.191 23.2903 135.064 21.9842 132.549 21.2567C130.033 20.5291 127.543 20.161 125.08 20.161C123.126 20.161 121.207 20.4152 119.305 20.9061C117.412 21.4057 115.726 22.1683 114.265 23.2114C112.796 24.2457 111.62 25.5781 110.721 27.1909C109.822 28.8037 109.372 30.7321 109.372 32.9673C109.372 35.3603 109.848 37.2799 110.799 38.7087C111.75 40.1462 112.96 41.2507 114.421 42.0308C115.882 42.8109 117.446 43.3895 119.115 43.7839C120.124 44.0225 121.099 44.2484 122.035 44.4652L122.039 44.4662C122.649 44.6074 123.242 44.7449 123.818 44.8796C125.287 45.2214 126.489 45.6334 127.44 46.133C128.391 46.6327 128.866 47.369 128.866 48.3595C128.866 49.4026 128.33 50.1126 127.25 50.507C126.169 50.9015 124.959 51.0943 123.627 51.0943C121.881 51.0943 120.351 50.7437 119.046 50.0425C117.74 49.3412 116.547 48.3156 115.467 46.957L108.456 54.8459C110.306 56.7743 112.562 58.1154 115.233 58.8693C117.905 59.6231 120.55 60 123.169 60C125.175 60 127.206 59.8072 129.255 59.4127C131.304 59.0183 133.154 58.3433 134.796 57.3791C136.439 56.4149 137.787 55.1352 138.842 53.5486C139.897 51.9621 140.424 49.8934 140.424 47.5005C140.424 45.1075 139.949 43.1879 138.998 41.7591C138.047 40.3216 136.836 39.1908 135.376 38.3581C133.915 37.5254 132.35 36.9206 130.681 36.5261C129.64 36.2798 128.638 36.0472 127.677 35.824L127.675 35.8233L127.673 35.8228C127.096 35.689 126.535 35.5585 125.987 35.4304C124.518 35.0886 123.316 34.7029 122.365 34.2559C121.414 33.8176 120.939 33.1251 120.939 32.1872C120.939 31.0477 121.397 30.2325 122.322 29.7679C123.247 29.3034 124.198 29.0667 125.175 29.0667C127.943 29.0667 130.17 30.1313 131.863 32.2517L131.848 32.2661H131.874Z" fill="white"/>
<path d="M26.4873 33.3615C25.9254 32.5288 25.1301 31.8363 24.1014 31.2929C23.0727 30.7494 21.9662 30.4689 20.7905 30.4689C17.8599 30.4689 15.595 31.3542 13.9785 33.1248C12.3619 34.8955 11.5493 37.2095 11.5493 40.0758C11.5493 42.9422 12.3619 45.2563 13.9785 47.0269C15.595 48.7975 17.8686 49.6828 20.7905 49.6828C22.0699 49.6828 23.1764 49.3935 24.1014 48.8238C25.0264 48.254 25.8217 47.5703 26.4873 46.7902L34.112 54.907C32.3139 56.7828 30.1959 58.0976 27.7581 58.8515C25.3203 59.6053 22.9949 59.9822 20.7905 59.9822C17.9118 59.9822 15.206 59.5177 12.6645 58.5798C10.1229 57.6418 7.91854 56.3007 6.04264 54.5564C4.16675 52.8121 2.6885 50.7171 1.61656 48.2716C0.535973 45.826 0 43.0912 0 40.0758C0 37.0605 0.535973 34.3257 1.61656 31.8802C2.69715 29.4346 4.16675 27.3396 6.04264 25.5953C7.91854 23.851 10.1229 22.5099 12.6645 21.572C15.206 20.6341 17.9118 20.1695 20.7905 20.1695C22.9949 20.1695 25.3203 20.5464 27.7581 21.3002C30.1959 22.0541 32.3139 23.3689 34.112 25.2447L26.4873 33.3615Z" fill="white"/>
<path d="M43.5619 21.0986H49.3788V27.1906H49.5345C50.7707 24.8503 52.2316 23.0884 53.926 21.9226C55.6203 20.7568 57.7469 20.1695 60.3144 20.1695C60.98 20.1695 61.6457 20.1958 62.32 20.2484C62.9856 20.301 63.5994 20.4062 64.1699 20.564V31.2666C63.3487 31.0036 62.5361 30.8108 61.7408 30.6793C60.9455 30.5478 60.1069 30.4865 59.2338 30.4865C57.0294 30.4865 55.2832 30.802 53.9951 31.4243C52.7071 32.0467 51.7216 32.9232 51.03 34.0365C50.3384 35.1584 49.8889 36.4996 49.6814 38.0598C49.474 39.6201 49.3702 41.3381 49.3702 43.2139V59.0618H37.8209V21.1074L43.5619 21.0986Z" fill="white"/>
<path fill-rule="evenodd" clip-rule="evenodd" d="M96.362 58.036C99.1888 56.73 101.523 54.8804 103.373 52.4875L103.356 52.4962L95.2728 46.4832C94.3046 47.8418 93.1548 48.9462 91.8495 49.8052C90.5355 50.6643 88.9362 51.0938 87.0344 51.0938C84.7781 51.0938 82.8763 50.4276 81.3375 49.104C79.7988 47.7804 78.796 45.9923 78.3378 43.7571H105.136V40.0844C105.136 37.069 104.721 34.3342 103.9 31.8886C103.079 29.4431 101.912 27.3482 100.399 25.6038C98.8863 23.8595 97.0363 22.5184 94.8578 21.5805C92.6707 20.6513 90.2502 20.178 87.579 20.178C84.7003 20.178 81.9946 20.6426 79.453 21.5805C76.9115 22.5184 74.7071 23.8595 72.8312 25.6038C70.9553 27.3482 69.4857 29.4431 68.4051 31.8886C67.3245 34.3342 66.7885 37.069 66.7885 40.0844C66.7885 43.0997 67.3245 45.8345 68.4051 48.2801C69.477 50.7256 70.9553 52.8206 72.8312 54.5649C74.7071 56.3092 76.9115 57.6503 79.453 58.5883C81.9946 59.5262 84.5447 59.9907 87.579 59.9907C90.6133 59.9907 93.5352 59.3333 96.362 58.036ZM91.668 30.7053C93.0079 32.1078 93.6476 33.7995 93.5957 35.7805L93.5871 35.7718H78.3378C78.3897 34.8339 78.6058 33.9398 78.9948 33.0808C79.3752 32.2217 79.9198 31.4679 80.6114 30.8193C81.3116 30.1619 82.1415 29.6359 83.1184 29.2152C84.0952 28.8032 85.219 28.5929 86.5071 28.5929C88.6164 28.5929 90.3367 29.3029 91.668 30.7053Z" fill="white"/>
<path d="M168.07 31.2929C169.098 31.8363 169.894 32.5288 170.455 33.3615L178.08 25.2447C176.282 23.3689 174.164 22.0541 171.726 21.3002C169.288 20.5464 166.963 20.1695 164.759 20.1695C161.88 20.1695 159.174 20.6341 156.633 21.572C154.091 22.5099 151.887 23.851 150.011 25.5953C148.135 27.3396 146.665 29.4346 145.585 31.8802C144.504 34.3257 143.968 37.0605 143.968 40.0758C143.968 43.0912 144.504 45.826 145.585 48.2716C146.657 50.7171 148.135 52.8121 150.011 54.5564C151.887 56.3007 154.091 57.6418 156.633 58.5798C159.174 59.5177 161.88 59.9822 164.759 59.9822C166.963 59.9822 169.288 59.6053 171.726 58.8515C174.164 58.0976 176.282 56.7828 178.08 54.907L170.455 46.7902C169.79 47.5703 168.995 48.254 168.07 48.8238C167.145 49.3935 166.038 49.6828 164.759 49.6828C161.837 49.6828 159.563 48.7975 157.947 47.0269C156.33 45.2563 155.517 42.9422 155.517 40.0758C155.517 37.2095 156.33 34.8955 157.947 33.1248C159.563 31.3542 161.837 30.4689 164.759 30.4689C165.943 30.4689 167.041 30.7494 168.07 31.2929Z" fill="white"/>
<path fill-rule="evenodd" clip-rule="evenodd" d="M215.477 52.4875C213.627 54.8804 211.293 56.73 208.466 58.036C205.639 59.3333 202.717 59.9907 199.683 59.9907C196.649 59.9907 194.099 59.5262 191.557 58.5883C189.015 57.6503 186.811 56.3092 184.935 54.5649C183.059 52.8206 181.581 50.7256 180.509 48.2801C179.428 45.8345 178.892 43.0997 178.892 40.0844C178.892 37.069 179.428 34.3342 180.509 31.8886C181.59 29.4431 183.059 27.3482 184.935 25.6038C186.811 23.8595 189.015 22.5184 191.557 21.5805C194.099 20.6426 196.804 20.178 199.683 20.178C202.354 20.178 204.775 20.6513 206.962 21.5805C209.14 22.5184 210.99 23.8595 212.503 25.6038C214.016 27.3482 215.183 29.4431 216.004 31.8886C216.825 34.3342 217.232 37.069 217.232 40.0844V43.7571H190.433C190.9 45.9923 191.894 47.7804 193.433 49.104C194.972 50.4276 196.873 51.0938 199.13 51.0938C201.032 51.0938 202.631 50.6643 203.945 49.8052C205.25 48.9462 206.4 47.8418 207.368 46.4832L215.451 52.4962L215.477 52.4875ZM205.7 35.7805C205.752 33.7995 205.112 32.1078 203.772 30.7053C202.441 29.3029 200.72 28.5929 198.611 28.5929C197.323 28.5929 196.199 28.8032 195.222 29.2152C194.245 29.6359 193.416 30.1619 192.715 30.8193C192.024 31.4679 191.488 32.2217 191.099 33.0808C190.71 33.9398 190.494 34.8339 190.442 35.7718H205.691L205.7 35.7805Z" fill="white"/>
<path d="M234.582 21.0986H223.491L223.509 21.1074V59.0618H235.058V40.1635C235.058 38.91 235.136 37.7179 235.291 36.5697C235.438 35.4214 235.758 34.3958 236.251 33.4842C236.735 32.5814 237.444 31.8451 238.369 31.3016C239.294 30.7494 240.504 30.4777 241.991 30.4777C243.478 30.4777 244.619 30.7932 245.414 31.4156C246.209 32.0379 246.797 32.8443 247.186 33.8348C247.567 34.8253 247.8 35.9035 247.878 37.0781C247.956 38.2527 247.99 39.3834 247.99 40.4791V59.0618H259.54V38.1299C259.54 35.5792 259.367 33.2037 259.004 31.0211C258.641 28.8385 257.966 26.9364 256.964 25.3236C255.961 23.7107 254.56 22.4485 252.762 21.5369C250.964 20.6253 248.595 20.1695 245.674 20.1695C244.282 20.1695 243.002 20.3448 241.818 20.713C240.642 21.0723 239.588 21.5457 238.663 22.1154C237.738 22.694 236.942 23.3426 236.277 24.0701C235.611 24.7977 235.092 25.5252 234.738 26.2527H234.582V21.0986Z" fill="white"/>
<path fill-rule="evenodd" clip-rule="evenodd" d="M314.036 31.8802C312.955 34.3257 312.419 37.0605 312.419 40.0758C312.419 43.0912 312.955 45.826 314.036 48.2716C315.108 50.7171 316.586 52.8121 318.462 54.5564C320.338 56.3007 322.542 57.6418 325.084 58.5798C327.625 59.5177 330.331 59.9822 333.209 59.9822C336.088 59.9822 338.794 59.5177 341.335 58.5798C343.877 57.6418 346.081 56.3007 347.957 54.5564C349.825 52.8121 351.303 50.7171 352.383 48.2716C353.464 45.826 354 43.0912 354 40.0758C354 37.0605 353.464 34.3257 352.383 31.8802C351.312 29.4346 349.833 27.3396 347.957 25.5953C346.081 23.851 343.877 22.5099 341.335 21.572C338.794 20.6428 336.088 20.1695 333.209 20.1695C330.331 20.1695 327.625 20.6341 325.084 21.572C322.542 22.5099 320.338 23.851 318.462 25.5953C316.586 27.3396 315.116 29.4346 314.036 31.8802ZM326.397 47.0269C324.772 45.2563 323.968 42.9422 323.968 40.0758C323.968 37.2095 324.781 34.8955 326.397 33.1248C328.014 31.3542 330.288 30.4689 333.209 30.4689C336.131 30.4689 338.405 31.3542 340.022 33.1248C341.647 34.8955 342.451 37.2095 342.451 40.0758C342.451 42.9422 341.638 45.2563 340.022 47.0269C338.405 48.7975 336.131 49.6828 333.209 49.6828C330.288 49.6828 328.014 48.7975 326.397 47.0269Z" fill="white"/>
</svg>
